<svg width="12" height="12" viewBox="0 0 12 12" fill="none" xmlns="http://www.w3.org/2000/svg">
<path d="M1 0.769897H1.65308C1.77609 0.769897 1.8376 0.769897 1.88709 0.792518C1.93071 0.812451 1.96767 0.84451 1.99357 0.88487C2.02297 0.930669 2.03167 0.991557 2.04906 1.11333L2.28571 2.7699M2.28571 2.7699L2.81166 6.6356C2.8784 7.12616 2.91177 7.37144 3.02905 7.55607C3.13239 7.71876 3.28054 7.84812 3.45568 7.92858C3.65443 8.0199 3.90197 8.0199 4.39705 8.0199H8.676C9.14727 8.0199 9.38291 8.0199 9.57548 7.93511C9.74527 7.86034 9.89092 7.73982 9.99614 7.58701C10.1155 7.4137 10.1596 7.18223 10.2477 6.71928L10.9096 3.24474C10.9406 3.0818 10.9561 3.00033 10.9336 2.93665C10.9139 2.88078 10.875 2.83374 10.8238 2.80391C10.7654 2.7699 10.6825 2.7699 10.5166 2.7699H2.28571ZM5 10.2699C5 10.546 4.77614 10.7699 4.5 10.7699C4.22386 10.7699 4 10.546 4 10.2699C4 9.99376 4.22386 9.7699 4.5 9.7699C4.77614 9.7699 5 9.99376 5 10.2699ZM9 10.2699C9 10.546 8.77614 10.7699 8.5 10.7699C8.22386 10.7699 8 10.546 8 10.2699C8 9.99376 8.22386 9.7699 8.5 9.7699C8.77614 9.7699 9 9.99376 9 10.2699Z" stroke="white" stroke-linecap="round" stroke-linejoin="round"/>
</svg>
