<svg width="191" height="30" viewBox="0 0 191 30" fill="none" xmlns="http://www.w3.org/2000/svg">
<g clip-path="url(#clip0_8_338)">
<path d="M13.6267 11.9784L7.0022 27.7231L13.6267 11.9784Z" fill="#8087E8"/>
<path d="M30.5947 17.5909V17.6057L22.4158 21.1062L30.5947 17.6057V17.5909Z" fill="#30426B"/>
<path d="M22.4158 21.1062L30.5947 17.6057L21.2536 14.504L22.4158 21.1062Z" fill="#30426B"/>
<path d="M30.5947 17.5909L18.6823 0L21.2536 14.504L30.5947 17.5909Z" fill="#6699A1"/>
<path d="M22.4158 21.1061L7.0022 27.723L22.4158 21.1061Z" fill="#78758C"/>
<path d="M22.4158 21.1062L21.2536 14.504L13.6267 11.9784L7.0022 27.7231L22.4158 21.1062Z" fill="#78758C"/>
<path d="M21.2536 14.504L30.5947 17.5909L21.2536 14.504Z" fill="#78758C"/>
<path d="M0 7.47351L7.00222 27.723L13.6267 11.9783L0 7.47351Z" fill="#A3EDBA"/>
<path d="M22.4158 21.1061L23.9121 29.5397L30.5947 17.6057L22.4158 21.1061Z" fill="#6699A1"/>
<path d="M13.6267 11.9784L21.2536 14.504L18.6823 0L13.6267 11.9784Z" fill="#8087E8"/>
<path d="M58.758 8.4178C58.2408 8.4178 57.8366 8.81983 57.8366 9.33443V13.5316H49.3175V9.33443C49.3175 8.81983 48.9133 8.4178 48.396 8.4178C47.8787 8.4178 47.4746 8.81983 47.4746 9.33443V20.157C47.4746 20.6716 47.8787 21.0737 48.396 21.0737C48.9133 21.0737 49.3175 20.6716 49.3175 20.157V15.3005H57.8366V20.157C57.8366 20.6716 58.2408 21.0737 58.758 21.0737C59.2753 21.0737 59.6795 20.6716 59.6795 20.157V9.33443C59.6795 8.81983 59.2753 8.4178 58.758 8.4178Z" fill="black"/>
<path d="M66.1618 8.4178C65.6445 8.4178 65.2404 8.81983 65.2404 9.33443V20.157C65.2404 20.6716 65.6445 21.0737 66.1618 21.0737C66.6791 21.0737 67.0832 20.6716 67.0832 20.157V9.33443C67.0832 8.81983 66.6791 8.4178 66.1618 8.4178Z" fill="black"/>
<path d="M81.5997 14.7538C81.0824 14.7538 80.6783 15.1236 80.6783 15.6382V18.2595C79.87 18.967 78.8193 19.3691 77.6392 19.3691C75.0851 19.3691 73.0159 17.3107 73.0159 14.7699C73.0159 12.229 75.0851 10.1706 77.6392 10.1706C78.9324 10.1706 80.0478 10.6852 80.9046 11.5375C81.2764 11.9074 81.8584 11.8753 82.2302 11.5054C82.602 11.1355 82.602 10.5888 82.2302 10.2189C81.0501 9.04497 79.4497 8.3374 77.6392 8.3374C74.0505 8.3374 71.1569 11.2159 71.1569 14.7859C71.1569 18.356 74.0505 21.2345 77.6392 21.2345C79.4497 21.2345 81.0501 20.543 82.2302 19.353C82.408 19.1761 82.5211 18.8384 82.5211 18.6133V15.7026C82.5211 15.1558 82.117 14.7538 81.5997 14.7538Z" fill="black"/>
<path d="M98.638 8.4178C98.1207 8.4178 97.7166 8.81983 97.7166 9.33443V13.5316H89.1974V9.33443C89.1974 8.81983 88.7933 8.4178 88.276 8.4178C87.7587 8.4178 87.3546 8.81983 87.3546 9.33443V20.157C87.3546 20.6716 87.7587 21.0737 88.276 21.0737C88.7933 21.0737 89.1974 20.6716 89.1974 20.157V15.3005H97.7166V20.157C97.7166 20.6716 98.1207 21.0737 98.638 21.0737C99.1553 21.0737 99.5594 20.6716 99.5594 20.157V9.33443C99.5594 8.81983 99.1553 8.4178 98.638 8.4178Z" fill="black"/>
<path d="M110.115 10.1546C111.409 10.1546 112.524 10.6692 113.381 11.5215C113.753 11.8913 114.351 11.8592 114.723 11.4893C115.094 11.1194 115.094 10.5727 114.723 10.2028C113.543 9.02889 111.942 8.32132 110.132 8.32132C106.543 8.32132 103.649 11.1998 103.649 14.7699C103.649 18.3399 106.543 21.2184 110.132 21.2184C111.942 21.2184 113.543 20.5108 114.723 19.3369C115.094 18.967 115.094 18.4203 114.723 18.0504C114.351 17.6805 113.801 17.6805 113.429 18.0504C112.573 18.9027 111.425 19.3691 110.132 19.3691C107.577 19.3691 105.508 17.3107 105.508 14.7699C105.476 12.213 107.561 10.1546 110.115 10.1546Z" fill="black"/>
<path d="M130.354 8.4178C129.837 8.4178 129.433 8.81983 129.433 9.33443V13.5316H120.914V9.33443C120.914 8.81983 120.51 8.4178 119.992 8.4178C119.475 8.4178 119.071 8.81983 119.071 9.33443V20.157C119.071 20.6716 119.475 21.0737 119.992 21.0737C120.51 21.0737 120.914 20.6716 120.914 20.157V15.3005H129.433V20.157C129.433 20.6716 129.837 21.0737 130.354 21.0737C130.872 21.0737 131.276 20.6716 131.276 20.157V9.33443C131.292 8.81983 130.872 8.4178 130.354 8.4178Z" fill="black"/>
<path d="M143.044 9.22186C142.705 8.51429 142.042 8.4178 141.67 8.4178C141.298 8.4178 140.636 8.53037 140.296 9.22186L135.042 19.4977C134.929 19.7229 134.816 20.0123 134.816 20.2696C134.816 20.7842 135.156 21.0737 135.673 21.0737C136.045 21.0737 136.417 20.9611 136.675 20.4465L138.276 17.2464H145.049L146.682 20.4465C146.94 20.9611 147.312 21.0737 147.684 21.0737C148.201 21.0737 148.541 20.7842 148.541 20.2696C148.541 20.0123 148.427 19.7229 148.314 19.4977L143.044 9.22186ZM139.148 15.4935L141.67 10.5244L144.144 15.4935H139.148Z" fill="black"/>
<path d="M159.533 16.0724C161.376 15.7347 162.798 14.2713 162.798 12.3094C162.798 10.1063 160.988 8.48213 158.757 8.48213H152.97C152.453 8.48213 152.048 8.88416 152.048 9.39876V20.1571C152.048 20.6716 152.453 21.0737 152.97 21.0737C153.487 21.0737 153.891 20.7038 153.891 20.1892V16.1368H157.157L161.521 20.7038C161.893 21.1058 162.604 21.2184 162.96 20.8485C163.332 20.5108 163.219 19.9319 162.879 19.5942L159.533 16.0724ZM153.907 14.3839V10.2511H158.757C160.05 10.2511 160.939 11.1355 160.939 12.3094C160.939 13.4834 160.05 14.3678 158.757 14.3678H153.907V14.3839Z" fill="black"/>
<path d="M177.687 8.49821H166.581C166.064 8.49821 165.66 8.86808 165.66 9.38267C165.66 9.89727 166.064 10.2671 166.581 10.2671H171.204V20.1731C171.204 20.6877 171.609 21.0898 172.126 21.0898C172.643 21.0898 173.047 20.6877 173.047 20.1731V10.2671H177.671C178.188 10.2671 178.592 9.89727 178.592 9.38267C178.608 8.852 178.204 8.49821 177.687 8.49821Z" fill="black"/>
<path d="M188.986 9.22186C188.986 8.70727 188.582 8.30524 188.065 8.30524C185.915 8.30524 183.07 8.85199 183.07 13.4673V16.0403C183.07 18.9831 181.663 19.353 179.918 19.353C179.4 19.353 178.996 19.755 178.996 20.2696C178.996 20.7842 179.4 21.1862 179.918 21.1862C182.068 21.1862 184.913 20.6395 184.913 16.0242V13.4512C184.913 10.5084 186.319 10.1385 188.065 10.1385C188.566 10.1546 188.986 9.73646 188.986 9.22186Z" fill="black"/>
<path d="M189.083 18.2916C188.275 18.2916 187.612 18.951 187.612 19.755C187.612 20.5591 188.275 21.2184 189.083 21.2184C189.892 21.2184 190.554 20.5591 190.554 19.755C190.554 18.951 189.892 18.2916 189.083 18.2916ZM189.083 20.9289C188.437 20.9289 187.903 20.3983 187.903 19.755C187.903 19.1118 188.437 18.5811 189.083 18.5811C189.73 18.5811 190.263 19.1118 190.263 19.755C190.247 20.3983 189.73 20.9289 189.083 20.9289Z" fill="black"/>
<path d="M189.471 19.8515C189.423 19.8033 189.374 19.7872 189.326 19.7711C189.423 19.7389 189.504 19.6907 189.552 19.6264C189.601 19.562 189.633 19.4816 189.633 19.3691C189.633 19.2243 189.584 19.1118 189.487 19.0475C189.39 18.9831 189.245 18.951 189.035 18.951H188.421V20.4948H188.825V19.9158H188.938C189.002 19.9158 189.051 19.9319 189.099 19.9641C189.132 19.9962 189.18 20.0445 189.213 20.1249L189.407 20.5108H189.827L189.617 20.0766C189.568 19.9641 189.52 19.8998 189.471 19.8515ZM189.18 19.5942C189.148 19.6264 189.083 19.6425 189.002 19.6425H188.841V19.2404H189.002C189.083 19.2404 189.148 19.2565 189.18 19.2887C189.213 19.3208 189.229 19.3691 189.229 19.4334C189.229 19.5138 189.213 19.562 189.18 19.5942Z" fill="black"/>
</g>
<defs>
<clipPath id="clip0_8_338">
<rect width="190.554" height="29.5397" fill="white"/>
</clipPath>
</defs>
</svg>
