<svg width="10" height="11" viewBox="0 0 10 11" fill="none" xmlns="http://www.w3.org/2000/svg">
<path d="M2.5 7.2699L4 5.7699L2.5 4.2699M5.5 7.2699H7.5M2.9 10.2699H7.1C7.94008 10.2699 8.36012 10.2699 8.68099 10.1064C8.96323 9.9626 9.1927 9.73313 9.33651 9.45088C9.5 9.13002 9.5 8.70998 9.5 7.8699V3.6699C9.5 2.82982 9.5 2.40978 9.33651 2.08891C9.1927 1.80667 8.96323 1.5772 8.68099 1.43339C8.36012 1.2699 7.94008 1.2699 7.1 1.2699H2.9C2.05992 1.2699 1.63988 1.2699 1.31901 1.43339C1.03677 1.5772 0.8073 1.80667 0.66349 2.08891C0.5 2.40978 0.5 2.82982 0.5 3.6699V7.8699C0.5 8.70998 0.5 9.13002 0.66349 9.45088C0.8073 9.73313 1.03677 9.9626 1.31901 10.1064C1.63988 10.2699 2.05992 10.2699 2.9 10.2699Z" stroke="#18171C" stroke-linecap="round" stroke-linejoin="round"/>
</svg>
